<?xml version="1.0" standalone="no"?>
<!DOCTYPE svg PUBLIC "-//W3C//DTD SVG 20010904//EN"
 "http://www.w3.org/TR/2001/REC-SVG-20010904/DTD/svg10.dtd">
<svg version="1.0" xmlns="http://www.w3.org/2000/svg"
 width="500.000000pt" height="500.000000pt" viewBox="0 0 500.000000 500.000000"
 preserveAspectRatio="xMidYMid meet">
<metadata>
Created by potrace 1.14, written by Peter Selinger 2001-2017
</metadata>
<g transform="translate(0.000000,500.000000) scale(0.100000,-0.100000)"
fill="#000000" stroke="none">
<path d="M760 4956 c-77 -41 -155 -161 -179 -276 -17 -79 -13 -427 5 -498 21
-82 62 -158 113 -209 51 -53 94 -73 151 -73 58 0 97 19 173 87 37 33 95 76
130 97 l62 38 90 -6 c50 -4 104 -9 120 -11 45 -7 351 -43 420 -50 33 -3 71 -8
85 -10 14 -3 60 -7 103 -11 43 -3 87 -7 98 -9 123 -24 503 -24 724 -1 17 2 66
6 110 10 44 4 87 9 95 11 8 2 47 6 85 10 39 3 81 8 95 10 14 2 52 6 85 10 33
4 74 8 90 11 87 11 209 25 277 30 71 6 81 4 130 -21 57 -30 151 -99 183 -135
45 -50 115 -69 196 -53 42 8 135 98 168 163 47 90 54 133 56 345 1 212 -8 287
-44 369 -27 60 -86 137 -128 164 -65 43 -174 38 -227 -11 -13 -12 -41 -38 -63
-58 -55 -51 -181 -124 -212 -123 -34 1 -145 12 -246 24 -44 5 -102 12 -130 15
-27 3 -61 7 -75 10 -30 5 -95 13 -165 20 -27 3 -66 7 -85 9 -19 2 -66 7 -105
10 -38 4 -83 9 -100 11 -136 17 -372 22 -545 11 -124 -8 -141 -10 -240 -21
-36 -4 -85 -9 -110 -10 -25 -2 -63 -6 -85 -8 -22 -3 -65 -9 -95 -13 -30 -3
-62 -8 -71 -9 -20 -4 -95 -13 -174 -20 -33 -4 -67 -8 -75 -10 -8 -2 -55 -7
-105 -11 -49 -3 -97 -8 -105 -9 -29 -5 -214 114 -228 147 -2 5 -24 22 -49 39
-62 43 -140 49 -203 15z"/>
<path d="M2413 3100 c3 -637 7 -811 17 -831 7 -13 36 -51 63 -84 55 -66 77
-108 69 -137 -2 -10 -40 -54 -83 -97 -101 -100 -102 -126 -10 -206 48 -41 91
-84 92 -93 8 -60 6 -65 -72 -148 -105 -111 -105 -114 6 -225 97 -96 97 -129 4
-221 -104 -103 -104 -118 -4 -222 67 -70 75 -82 75 -117 0 -31 -8 -48 -47 -91
-25 -29 -49 -55 -53 -58 -3 -3 -14 -16 -23 -30 -31 -46 -22 -67 67 -159 47
-47 89 -99 95 -114 6 -16 9 -69 7 -123 -3 -53 -3 -94 -2 -93 18 22 114 170
122 190 18 39 -5 79 -75 133 -59 46 -91 88 -91 121 0 32 31 75 78 106 82 56
102 79 102 120 0 40 -27 71 -102 117 -46 28 -68 63 -70 107 -1 42 23 71 97
120 115 75 118 124 9 201 -78 55 -104 87 -104 126 0 45 13 60 93 116 40 28 78
57 84 64 36 47 12 92 -82 157 -76 53 -102 92 -91 133 9 35 25 50 103 100 86
56 108 84 93 122 -5 15 -46 72 -90 127 l-80 101 0 793 c0 747 -1 794 -17 799
-10 3 -55 4 -101 4 l-83 -1 4 -807z"/>
</g>
</svg>
